<svg version="1.1" id="Layer_1" xmlns="http://www.w3.org/2000/svg" xmlns:xlink="http://www.w3.org/1999/xlink" x="0px" y="0px"
	viewBox="0 0 33.518 23.463" enable-background="new 0 0 33.518 23.463" xml:space="preserve">
<g>
	<g>
		<path fill="#FFFFFF" d="M31.283,2.234C31.283,1.001,30.281,0,29.047,0H4.469C3.234,0,2.234,1.001,2.234,2.234v17.877h29.049V2.234
			z M29.047,17.876H4.469V2.234h24.578V17.876z"/>
		<path fill="#FFFFFF" d="M21.227,21.229c0,0.616-0.5,1.117-1.117,1.117h-6.703c-0.617,0-1.116-0.501-1.116-1.117H0v1.117
			c0,0.617,0.501,1.117,1.116,1.117h31.283c0.617,0,1.118-0.5,1.118-1.117v-1.117H21.227z"/>
	</g>
	<g transform="translate(0,-952.36218)">
		<path fill="#FFFFFF" d="M20.316,958.127c-0.406-0.007-0.895,0.244-1.303,0.651c-0.668,0.601-1.322,1.273-1.954,1.954l-5.211-1.042
			l-0.391,0.782l3.909,1.953l-2.216,2.605c-0.509-0.167-1.303-0.356-1.303,0.261c0,0.122,0.031,0.248,0.13,0.392l1.564,1.562
			c0.143,0.102,0.269,0.131,0.391,0.131c0.616,0,0.428-0.795,0.26-1.303l2.605-2.215l1.954,3.908l0.782-0.391l-1.043-5.21
			c0.681-0.632,1.354-1.288,1.953-1.955c0.409-0.407,0.659-0.896,0.652-1.303c-0.004-0.218-0.072-0.427-0.213-0.568
			C20.744,958.199,20.535,958.131,20.316,958.127z"/>
	</g>
</g>
</svg>
