<svg version="1.1" id="Layer_1" xmlns="http://www.w3.org/2000/svg" xmlns:xlink="http://www.w3.org/1999/xlink" x="0px" y="0px"
 viewBox="0 0 25.565 29.425" enable-background="new 0 0 25.565 29.425" xml:space="preserve">
<g>
	<path fill="#FFFFFF" d="M23.923,8.674h-9.327v5.293h10.422c0.304,0,0.548-0.246,0.548-0.547v-3.104
		C25.565,9.409,24.831,8.674,23.923,8.674z"/>
	<path fill="#FFFFFF" d="M1.644,8.674C0.735,8.674,0,9.409,0,10.317v3.104c0,0.301,0.246,0.547,0.549,0.547h10.423V8.674H1.644z"/>
	<path fill="#FFFFFF" d="M22.995,29.425c0.605,0,1.211-0.438,1.211-0.979V15.628h-9.61v13.797H22.995z"/>
	<path fill="#FFFFFF" d="M1.36,15.628v12.817c0,0.541,0.49,0.979,1.095,0.979h8.517V15.628H1.36z"/>
	<path fill="#FFFFFF" d="M20.602,1.015c-0.486-0.582-1.188-0.926-2.029-1c-1.448-0.128-3.097,0.569-4.407,1.864
		c-0.592,0.584-1.263,1.435-1.785,2.611c-0.457-0.927-1.008-1.613-1.498-2.098C9.679,1.205,8.163,0.564,6.827,0.681
		C6.044,0.75,5.389,1.073,4.934,1.615C4.161,2.536,4.115,3.885,4.809,5.222c0.835,1.608,2.907,3.354,6.162,3.552v-0.1h3.625v0.043
		C17.81,8.338,19.868,6.552,20.73,4.9C21.479,3.456,21.433,2.002,20.602,1.015z M6.289,4.453C5.919,3.746,5.89,3.068,6.211,2.687
		c0.208-0.249,0.53-0.326,0.763-0.347c0.66-0.058,1.725,0.237,2.737,1.238c0.659,0.65,1.461,1.771,1.792,3.546
		C8.685,7.102,6.946,5.722,6.289,4.453z M19.251,4.131c-0.746,1.437-2.725,3.001-5.933,2.995c0.356-2.04,1.268-3.322,2.019-4.062
		c1.14-1.125,2.342-1.455,3.09-1.39c0.271,0.023,0.65,0.113,0.898,0.41C19.702,2.535,19.673,3.318,19.251,4.131z"/>
</g>
</svg>
